<svg xmlns="http://www.w3.org/2000/svg" viewBox="0 0 620 620"><defs><style>.cls-bnb{fill:#f3ba2c;}.cls-2{fill:#fff;}.cls-3{fill:none;stroke:#fff;stroke-miterlimit:10;stroke-width:7px;}</style></defs><g id="ALL_logo_s" data-name="ALL logo&apos;s"><g id="Logo"><circle id="Ellipse" class="cls-bnb" cx="310.2311" cy="312.3311" r="296.6408"/><g id="Triangles"><polygon class="cls-2" points="437.51 392.103 437.468 392.124 310.231 519.382 183.014 392.165 182.953 392.103 229.801 345.378 229.801 345.378 310.231 425.787 390.681 345.337 437.51 392.103"/><polygon class="cls-2" points="437.468 232.538 390.681 279.325 310.231 198.875 229.801 279.284 183.014 232.497 310.231 105.28 437.468 232.538"/></g><g id="Rectangles"><rect class="cls-2" x="437.3998" y="279.2722" width="66.1751" height="66.1751" transform="translate(-83.0691 424.1729) rotate(-45)"/><rect class="cls-2" x="116.8827" y="279.2471" width="66.1751" height="66.1751" transform="translate(-176.9287 197.5257) rotate(-45)"/><path class="cls-2" d="M357.6961,312.3105h.0205L310.2311,264.825l-35.08,35.08h0l-4.0256,4.0257-8.3182,8.3181-.0616.0617.0616.0616,47.4445,47.4444,47.4855-47.4855.0206-.02-.0616,0"/></g></g></g><g id="WHITE_RING_FOR_BLACK_BG_copy" data-name="WHITE RING FOR BLACK BG copy"><circle class="cls-3" cx="310.5535" cy="311.0156" r="297"/></g></svg>
