<svg xmlns="http://www.w3.org/2000/svg" xmlns:xlink="http://www.w3.org/1999/xlink" viewBox="0 0 1074.913 678.4622"><defs><style>.cls-1{fill:#2775ca;}.cls-2{fill:#fff;}.cls-3{fill:#312f30;}.cls-4,.cls-5,.cls-6{fill:#12b5ec;stroke-width:3.9843px;}.cls-4,.cls-5,.cls-6,.cls-8{stroke:#fff;stroke-miterlimit:10;}.cls-4,.cls-5{isolation:isolate;}.cls-4{opacity:0.5;}.cls-5{opacity:0.7;}.cls-7,.cls-8{fill:none;}.cls-7{stroke-width:19.7224px;stroke:url(#radial-gradient);}.cls-8{stroke-width:7px;}</style><radialGradient id="radial-gradient" cx="796.8772" cy="-390.7946" r="3.2871" gradientTransform="matrix(123.1999, 134.4425, 134.4425, -123.1999, -45496.1565, -155120.8589)" gradientUnits="userSpaceOnUse"><stop offset="0.2729" stop-color="#66bcea"/><stop offset="0.5659" stop-color="#f3f7fc"/><stop offset="0.7448" stop-color="#d3e199"/><stop offset="1" stop-color="#5771b4"/></radialGradient></defs><g id="ALL_logo_s" data-name="ALL logo&apos;s"><path class="cls-1" d="M739.8811,634.173A294.6882,294.6882,0,1,0,445.1929,339.4848,293.98,293.98,0,0,0,739.8811,634.173Z"/><path class="cls-2" d="M820.92,386.1427c0-42.9743-25.7852-57.7088-77.3557-63.8471-36.836-4.9125-44.2032-14.7344-44.2032-31.9265s12.28-28.24,36.836-28.24c22.1016,0,34.3813,7.3672,40.52,25.7852a9.235,9.235,0,0,0,8.5961,6.1384h19.6439a8.3927,8.3927,0,0,0,8.5961-8.5931v-1.2289a61.3434,61.3434,0,0,0-55.254-50.3416V204.42c0-4.9124-3.6836-8.596-9.822-9.8249h-18.418c-4.9124,0-8.596,3.6836-9.8249,9.8249v28.24c-36.836,4.9124-60.1635,29.4688-60.1635,60.1665,0,40.52,24.5563,56.48,76.1268,62.6212,34.3812,6.1383,45.432,13.5056,45.432,33.1524s-17.1921,33.1524-40.52,33.1524c-31.9265,0-42.9773-13.5084-46.6609-31.9265-1.2259-4.9095-4.91-7.3672-8.5931-7.3672H664.98a8.3927,8.3927,0,0,0-8.5931,8.5961v1.2289c4.9095,30.6947,24.5564,52.7963,65.076,58.9376v29.4688c0,4.91,3.6836,8.5931,9.8219,9.822h18.4181c4.9124,0,8.596-3.6836,9.8249-9.822V451.2217c36.836-6.1413,61.3923-31.9265,61.3923-65.0789Z"/><path class="cls-2" d="M677.26,515.0688c-95.7737-34.3783-144.8894-141.2028-109.2792-235.75,18.418-51.5705,58.9376-90.8612,109.2792-109.2793,4.9124-2.4547,7.3672-6.1383,7.3672-12.28V140.57c0-4.9124-2.4548-8.596-7.3672-9.8219-1.2289,0-3.6836,0-4.9125,1.2259-116.6464,36.836-180.4965,160.8526-143.66,277.499a220.89,220.89,0,0,0,143.66,143.66c4.9125,2.4548,9.8249,0,11.0508-4.9125,1.2289-1.2259,1.2289-2.4547,1.2289-4.9095V526.12C684.6271,522.436,680.9435,517.5265,677.26,515.0688ZM807.4148,131.9742c-4.9124-2.4548-9.8249,0-11.0508,4.9124-1.2288,1.2289-1.2288,2.4548-1.2288,4.9125v17.1891c0,4.9125,3.6836,9.822,7.3672,12.28,95.7736,34.3783,144.8893,141.2028,109.2792,235.7505-18.418,51.5705-58.9377,90.8612-109.2792,109.2793-4.9125,2.4547-7.3672,6.1383-7.3672,12.28v17.1892c0,4.9125,2.4547,8.5961,7.3672,9.822,1.2288,0,3.6836,0,4.9124-1.226,116.6464-36.836,180.4965-160.8526,143.66-277.499a222.6944,222.6944,0,0,0-143.66-144.8893Z"/><circle class="cls-3" cx="309.8657" cy="338.0672" r="295.8361"/><circle class="cls-3" cx="309.8657" cy="338.0672" r="295.8361"/><g id="Charge_Icon" data-name="Charge Icon"><path class="cls-4" d="M231.751,405.4526H387.98a17.4456,17.4456,0,0,1,17.4456,17.4456h0A17.4456,17.4456,0,0,1,387.98,440.3438H231.751a17.4456,17.4456,0,0,1-17.4456-17.4456h0A17.4456,17.4456,0,0,1,231.751,405.4526Z"/><path class="cls-5" d="M231.751,348.8982H387.98a17.4457,17.4457,0,0,1,17.4456,17.4457h0A17.4456,17.4456,0,0,1,387.98,383.79H231.751a17.4456,17.4456,0,0,1-17.4456-17.4456h0A17.4457,17.4457,0,0,1,231.751,348.8982Z"/><path class="cls-6" d="M231.751,292.3446H387.98A17.4456,17.4456,0,0,1,405.426,309.79h0A17.4456,17.4456,0,0,1,387.98,327.2358H231.751A17.4456,17.4456,0,0,1,214.3054,309.79h0A17.4456,17.4456,0,0,1,231.751,292.3446Z"/><rect class="cls-6" x="214.3054" y="235.7906" width="191.1206" height="34.8912" rx="17.4456"/></g><circle class="cls-7" cx="309.8657" cy="338.0672" r="253.1042"/></g><g id="WHITE_RING_FOR_BLACK_BG_copy" data-name="WHITE RING FOR BLACK BG copy"><path class="cls-8" d="M739.2578,41.41a296.37,296.37,0,0,0-214.7273,91.7188A294.9093,294.9093,0,0,0,311.8144,42.849C148.4516,42.849,16.02,175.281,16.02,338.644S148.4516,634.4389,311.8144,634.4389A294.9092,294.9092,0,0,0,524.5305,544.16a296.37,296.37,0,0,0,214.7273,91.7188c164.1582,0,297.2344-133.0764,297.2344-297.2344S903.416,41.41,739.2578,41.41Z"/></g></svg>