<svg xmlns="http://www.w3.org/2000/svg" xmlns:xlink="http://www.w3.org/1999/xlink" viewBox="0 0 1074.913 678.4622"><defs><style>.cls-1,.cls-8,.cls-9{fill:none;}.cls-2{clip-path:url(#clip-path);}.cls-3{fill:#f0b90b;}.cls-4,.cls-6,.cls-7{fill:#fff;}.cls-5{fill:#312f30;}.cls-6,.cls-7{isolation:isolate;}.cls-6{opacity:0.5;}.cls-7{opacity:0.7;}.cls-8{stroke-width:19.7603px;stroke:url(#radial-gradient);}.cls-9{stroke:#fff;stroke-miterlimit:10;stroke-width:7px;}</style><clipPath id="clip-path"><rect class="cls-1" x="426.5803" y="5.0679" width="638.044" height="638.044"/></clipPath><radialGradient id="radial-gradient" cx="803.2814" cy="-1986.6104" r="3.2934" gradientTransform="matrix(123.1999, 134.4425, 134.4425, -123.1999, 168268.9732, -352600.1442)" gradientUnits="userSpaceOnUse"><stop offset="0.2729" stop-color="#67bbe9"/><stop offset="0.5659" stop-color="#f2f6fc"/><stop offset="0.7448" stop-color="#d2e099"/><stop offset="1" stop-color="#5771b3"/></radialGradient></defs><g id="ALL_logo_s" data-name="ALL logo&apos;s"><g class="cls-2"><path class="cls-3" d="M745.6022,26.2031c164.5356,0,297.8868,133.3511,297.8868,297.8867S910.1378,621.9766,745.6022,621.9766,447.7155,488.6254,447.7155,324.09,581.0667,26.2031,745.6022,26.2031"/></g><g class="cls-2"><path class="cls-4" d="M618.791,248.4019l126.9708-126.891,50.5649,50.565L669.4357,299.0466Zm.1595,151.6949L821.689,197.2786l50.565,50.565L669.5155,450.6618Zm278.586-126.8112L694.798,476.0241l50.565,50.565L948.1812,323.8506ZM543.0233,324.17l50.565-50.565,50.5649,50.565-50.5649,50.565Z"/></g><circle class="cls-5" cx="318.9042" cy="324.4215" r="296.405"/><g id="Charge_Icon" data-name="Charge Icon"><path class="cls-6" d="M240.6393,391.9365h156.53a17.4792,17.4792,0,0,1,17.4792,17.4791h0a17.4792,17.4792,0,0,1-17.4792,17.4792h-156.53A17.4792,17.4792,0,0,1,223.16,409.4156h0A17.4792,17.4792,0,0,1,240.6393,391.9365Z"/><path class="cls-7" d="M240.6393,335.2734h156.53a17.4792,17.4792,0,0,1,17.4792,17.4792h0a17.4792,17.4792,0,0,1-17.4792,17.4791h-156.53A17.4792,17.4792,0,0,1,223.16,352.7526h0A17.4792,17.4792,0,0,1,240.6393,335.2734Z"/><path class="cls-4" d="M240.6393,278.611h156.53A17.4791,17.4791,0,0,1,414.6483,296.09h0a17.4792,17.4792,0,0,1-17.4792,17.4792h-156.53A17.4792,17.4792,0,0,1,223.16,296.09h0A17.4791,17.4791,0,0,1,240.6393,278.611Z"/><path class="cls-4" d="M240.6393,221.9482h156.53a17.4791,17.4791,0,0,1,17.4791,17.4791v0a17.4792,17.4792,0,0,1-17.4792,17.4792h-156.53A17.4792,17.4792,0,0,1,223.16,239.4274v0a17.4792,17.4792,0,0,1,17.4792-17.4792Z"/></g><circle class="cls-8" cx="318.9042" cy="324.4215" r="253.591"/></g><g id="WHITE_RING_FOR_BLACK_BG_copy" data-name="WHITE RING FOR BLACK BG copy"><path class="cls-9" d="M746.6671,27.1142A296.37,296.37,0,0,0,531.94,118.833,294.9093,294.9093,0,0,0,319.2238,28.5536c-163.3628,0-295.7949,132.432-295.7949,295.795S155.861,620.1435,319.2238,620.1435A294.9092,294.9092,0,0,0,531.94,529.8642,296.37,296.37,0,0,0,746.6671,621.583c164.1582,0,297.2344-133.0764,297.2344-297.2344S910.8253,27.1142,746.6671,27.1142Z"/></g></svg>