<svg xmlns="http://www.w3.org/2000/svg" xmlns:xlink="http://www.w3.org/1999/xlink" viewBox="0 0 1074.913 678.4622"><defs><style>.cls-1{fill:#12b5ec;}.cls-2,.cls-4,.cls-5{fill:#fff;}.cls-3{fill:#312f30;}.cls-4,.cls-5{isolation:isolate;}.cls-4{opacity:0.5;}.cls-5{opacity:0.7;}.cls-6,.cls-7{fill:none;}.cls-6{stroke-width:19.6714px;stroke:url(#radial-gradient);}.cls-7{stroke:#fff;stroke-miterlimit:10;stroke-width:7px;}</style><radialGradient id="radial-gradient" cx="793.7589" cy="380.8875" r="3.2786" gradientTransform="matrix(123.1999, 134.4425, 134.4425, -123.1999, -148849.9013, -59641.1908)" gradientUnits="userSpaceOnUse"><stop offset="0.2729" stop-color="#67bbe9"/><stop offset="0.5659" stop-color="#f2f6fc"/><stop offset="0.7448" stop-color="#d2e099"/><stop offset="1" stop-color="#5771b3"/></radialGradient></defs><g id="ALL_logo_s" data-name="ALL logo&apos;s"><circle class="cls-1" cx="747.051" cy="323.7182" r="295.795"/><path class="cls-2" d="M732.95,164.063c7.9124-4.1579,19.9517-4.1579,27.864,0l80.7381,42.4283c4.7652,2.5042,7.3823,6.2358,7.8513,10.0879h.0768V429.846c-.1048,4.2016-2.7466,8.3752-7.9281,11.0991L760.8135,483.373c-7.9123,4.1583-19.9516,4.1583-27.864,0l-80.7378-42.4279c-5.16-2.7112-7.6361-6.9153-7.7587-11.0991-.0122-.412-.0137-.7553-.002-1.04l0-210.8568q-.0123-.3464-.0023-.6912l.0048-.6786.0361,0c.3586-3.8943,2.857-7.5305,7.7226-10.0876ZM836.77,335.56l-75.9562,39.9156c-7.9123,4.1581-19.9516,4.1581-27.864,0l-75.79-39.8266v93.7752l75.79,39.6175c4.28,2.2763,8.7216,4.4941,13.0649,4.7764l.8673.028c4.5258.0152,8.92-2.2712,13.3754-4.4356L836.77,429.083ZM631.321,425.21c0,8.1692.9545,13.5407,2.85,17.3252,1.5708,3.1359,3.9276,5.5318,8.231,8.449l.2456.1653c.9445.6333,1.9849,1.2971,3.2512,2.0753l1.4934.9106,4.5859,2.7544L645.4,467.7086l-5.1328-3.085-.8628-.5265c-1.4841-.9131-2.7142-1.6939-3.8615-2.4645-12.2648-8.2277-16.8389-17.1955-16.9292-35.8559l-.0013-.5672ZM740.5256,278.3977a11.5944,11.5944,0,0,0-1.6409.6971l-80.7379,42.4284q-.1271.0668-.2424.132l-.0684.04.1267.072.1841.0994,80.7379,42.4284a11.5944,11.5944,0,0,0,1.6409.6971Zm12.7121,0v86.5941a11.5719,11.5719,0,0,0,1.6407-.6971l80.7381-42.4284q.127-.0668.2424-.132l.0684-.0394-.1269-.0723-.1839-.0994-80.7381-42.4284A11.5719,11.5719,0,0,0,753.2377,278.3977Zm83.532-46.69-72.4265,38.061L836.77,307.83Zm-179.61.089v75.9439l72.2586-37.9719Zm97.7189-56.5531c-4.1985-2.2064-11.795-2.2064-15.9937,0l-80.7379,42.4285q-.1271.0668-.2424.132l-.0684.0394.1267.0722.1841.1,80.7379,42.4283c4.1987,2.2064,11.7952,2.2064,15.9937,0l80.7381-42.4283q.127-.0668.2424-.1323l.0684-.0394-.1269-.0722-.1839-.0992Zm93.8233,4.6527,5.133,3.0843.8626.527c1.4841.9115,2.714,1.6945,3.8616,2.4641,12.2647,8.2269,16.8389,17.1965,16.9279,35.8554l.0025.5684H862.7811c0-8.1712-.9545-13.5417-2.85-17.3254-1.5707-3.1359-3.9276-5.5325-8.231-8.4487l-.2456-.1656c-.9444-.6335-1.9849-1.2971-3.2512-2.0771l-1.4934-.91-4.5859-2.7534Z"/><circle class="cls-3" cx="318.335" cy="326.9143" r="295.0703"/><g id="Charge_Icon" data-name="Charge Icon"><path class="cls-4" d="M240.4225,394.1253h155.825a17.4,17.4,0,0,1,17.4005,17.4h0a17.4005,17.4005,0,0,1-17.4005,17.4005H240.4225a17.4005,17.4005,0,0,1-17.4005-17.4005h0A17.4,17.4,0,0,1,240.4225,394.1253Z"/><path class="cls-5" d="M240.4225,337.7173h155.825a17.4005,17.4005,0,0,1,17.4005,17.4h0a17.4005,17.4005,0,0,1-17.4005,17.4005H240.4225a17.4005,17.4005,0,0,1-17.4005-17.4005h0A17.4005,17.4005,0,0,1,240.4225,337.7173Z"/><path class="cls-2" d="M240.4225,281.31h155.825a17.4005,17.4005,0,0,1,17.4005,17.4005h0a17.4005,17.4005,0,0,1-17.4005,17.4H240.4225a17.4005,17.4005,0,0,1-17.4005-17.4h0A17.4005,17.4005,0,0,1,240.4225,281.31Z"/><path class="cls-2" d="M240.4225,224.9024h155.825a17.4,17.4,0,0,1,17.4,17.4v0a17.4,17.4,0,0,1-17.4,17.4H240.4225a17.4,17.4,0,0,1-17.4-17.4v0a17.4,17.4,0,0,1,17.4-17.4Z"/></g><circle class="cls-6" cx="318.335" cy="326.9143" r="252.449"/></g><g id="WHITE_RING_FOR_BLACK_BG_copy" data-name="WHITE RING FOR BLACK BG copy"><path class="cls-7" d="M746.6671,27.1142A296.37,296.37,0,0,0,531.94,118.833,294.9093,294.9093,0,0,0,319.2238,28.5536c-163.3628,0-295.7949,132.432-295.7949,295.795S155.861,620.1435,319.2238,620.1435A294.9092,294.9092,0,0,0,531.94,529.8642,296.37,296.37,0,0,0,746.6671,621.583c164.1582,0,297.2344-133.0764,297.2344-297.2344S910.8253,27.1142,746.6671,27.1142Z"/></g></svg>