<svg xmlns="http://www.w3.org/2000/svg" xmlns:xlink="http://www.w3.org/1999/xlink" viewBox="0 0 1074.913 678.4622"><defs><style>.cls-1{fill:#f5ac37;}.cls-2{fill:#fefefd;}.cls-3{fill:#312f30;}.cls-4,.cls-5,.cls-6{fill:#fff;}.cls-4,.cls-5{isolation:isolate;}.cls-4{opacity:0.5;}.cls-5{opacity:0.7;}.cls-7,.cls-8{fill:none;}.cls-7{stroke-width:19.7603px;stroke:url(#radial-gradient);}.cls-8{stroke:#fff;stroke-miterlimit:10;stroke-width:7px;}</style><radialGradient id="radial-gradient" cx="806.9553" cy="-2898.685" r="3.2934" gradientTransform="matrix(123.1999, 134.4425, 134.4425, -123.1999, 290437.8916, -465461.539)" gradientUnits="userSpaceOnUse"><stop offset="0.2729" stop-color="#67bbe9"/><stop offset="0.5659" stop-color="#f2f6fc"/><stop offset="0.7448" stop-color="#d2e099"/><stop offset="1" stop-color="#5771b3"/></radialGradient></defs><g id="ALL_logo_s" data-name="ALL logo&apos;s"><g id="Layer_1"><path class="cls-1" d="M744.7815,29.0057c164.396,0,297.638,133.2687,297.638,297.638,0,164.396-133.242,297.638-297.638,297.638-164.3693,0-297.638-133.2554-297.638-297.638C447.1435,162.2744,580.4122,29.0057,744.7815,29.0057Z"/><path class="cls-2" d="M755.7511,347.6586H868.8487c2.4109,0,3.5494,0,3.7235-3.1609a216.1916,216.1916,0,0,0,0-34.5963c0-2.2368-1.1117-3.161-3.536-3.161H643.9526c-2.7859,0-3.5359.9242-3.5359,3.536v33.11c0,4.2726,0,4.2726,4.46,4.2726Zm104.1907-79.613a3.6217,3.6217,0,0,0,0-2.5984,73.556,73.556,0,0,0-6.7237-11.72,94.9012,94.9012,0,0,0-13.7689-17.3049,45.6386,45.6386,0,0,0-8.5587-8.3711,133.7137,133.7137,0,0,0-55.8121-28.2744,138.7423,138.7423,0,0,0-31.6229-3.3485H643.5642c-2.7859,0-3.1609,1.1117-3.1609,3.536v66.0316c0,2.786,0,3.536,3.536,3.536H858.6024s1.8618-.375,2.2368-1.4867h-.8974Zm0,118.3078a43.4163,43.4163,0,0,0-9.51,0H644.14c-2.786,0-3.7235,0-3.7235,3.7235v64.5583c0,2.9735,0,3.7235,3.7235,3.7235h95.2436a47.5726,47.5726,0,0,0,13.568-.9241,141.7851,141.7851,0,0,0,40.3824-8.9338,73.9044,73.9044,0,0,0,13.568-6.3219h1.2992A120.8509,120.8509,0,0,0,860.1025,389.93s1.2992-2.8127-.1607-3.5493ZM603.0345,491.83V388.9652c0-2.4243,0-2.7859-2.9735-2.7859H559.692c-2.2368,0-3.161,0-3.161-2.9734V347.86h43.155c2.4109,0,3.3485,0,3.3485-3.1609V309.7273c0-2.2368,0-2.786-2.9735-2.786H559.692c-2.2368,0-3.161,0-3.161-2.9734V271.2333c0-2.0492,0-2.5984,2.9735-2.5984h39.994c2.7859,0,3.536,0,3.536-3.5359V164.8326c0-2.9734,0-3.7234,3.7235-3.7234h139.51a212.5687,212.5687,0,0,1,30.1362,3.3484,181.8325,181.8325,0,0,1,58.223,21.5775,164.083,164.083,0,0,1,32.7346,25.301,179.2585,179.2585,0,0,1,19.9032,24.7384,149.2025,149.2025,0,0,1,14.5324,28.4619,4.8439,4.8439,0,0,0,5.5584,3.911h33.2971c4.2727,0,4.2727,0,4.46,4.0985v30.5112c0,2.9734-1.1116,3.7235-4.0985,3.7235h-25.676c-2.5984,0-3.3484,0-3.1609,3.3485a190.0357,190.0357,0,0,1,0,34.0337c0,3.161,0,3.536,3.5494,3.536H945.1c1.2992,1.6742,0,3.3485,0,5.0361a37.56,37.56,0,0,1,0,6.496V381.746c0,3.1609-.9241,4.0985-3.7234,4.0985H906.2175a4.6543,4.6543,0,0,0-5.3977,3.536,148.7528,148.7528,0,0,1-39.07,56.9238,224.0724,224.0724,0,0,1-19.9032,15.9923c-7.447,4.286-14.693,8.7461-22.3276,12.2821a201.1268,201.1268,0,0,1-43.905,13.943,228.8857,228.8857,0,0,1-43.53,3.536H602.9809V491.87Z"/></g><circle class="cls-3" cx="318.9042" cy="324.4215" r="296.405"/><g id="Charge_Icon" data-name="Charge Icon"><path class="cls-4" d="M240.6393,391.9365h156.53a17.4792,17.4792,0,0,1,17.4792,17.4791h0a17.4792,17.4792,0,0,1-17.4792,17.4792h-156.53A17.4792,17.4792,0,0,1,223.16,409.4156h0A17.4792,17.4792,0,0,1,240.6393,391.9365Z"/><path class="cls-5" d="M240.6393,335.2734h156.53a17.4792,17.4792,0,0,1,17.4792,17.4792h0a17.4792,17.4792,0,0,1-17.4792,17.4791h-156.53A17.4792,17.4792,0,0,1,223.16,352.7526h0A17.4792,17.4792,0,0,1,240.6393,335.2734Z"/><path class="cls-6" d="M240.6393,278.611h156.53A17.4791,17.4791,0,0,1,414.6483,296.09h0a17.4792,17.4792,0,0,1-17.4792,17.4792h-156.53A17.4792,17.4792,0,0,1,223.16,296.09h0A17.4791,17.4791,0,0,1,240.6393,278.611Z"/><path class="cls-6" d="M240.6393,221.9482h156.53a17.4791,17.4791,0,0,1,17.4791,17.4791v0a17.4792,17.4792,0,0,1-17.4792,17.4792h-156.53A17.4792,17.4792,0,0,1,223.16,239.4274v0A17.4792,17.4792,0,0,1,240.6393,221.9482Z"/></g><circle class="cls-7" cx="318.9042" cy="324.4215" r="253.591"/></g><g id="WHITE_RING_FOR_BLACK_BG_copy" data-name="WHITE RING FOR BLACK BG copy"><path class="cls-8" d="M746.6671,27.1142A296.37,296.37,0,0,0,531.94,118.833,294.9093,294.9093,0,0,0,319.2238,28.5536c-163.3628,0-295.7949,132.432-295.7949,295.795S155.861,620.1435,319.2238,620.1435A294.9092,294.9092,0,0,0,531.94,529.8642,296.37,296.37,0,0,0,746.6671,621.583c164.1582,0,297.2344-133.0764,297.2344-297.2344S910.8253,27.1142,746.6671,27.1142Z"/></g></svg>