<svg xmlns="http://www.w3.org/2000/svg" viewBox="0 0 620 620"><defs><style>.cls-1{fill:#f5ac37;}.cls-2{fill:#fefefd;}.cls-3{fill:none;stroke:#fff;stroke-miterlimit:10;stroke-width:7px;}</style></defs><g id="ALL_logo_s" data-name="ALL logo&apos;s"><g id="Layer_1"><path class="cls-1" d="M315.0192,13.7187c164.396,0,297.638,133.2687,297.638,297.638,0,164.396-133.242,297.638-297.638,297.638-164.3693,0-297.6381-133.2553-297.6381-297.638C17.3811,146.9874,150.65,13.7187,315.0192,13.7187Z"/><path class="cls-2" d="M325.9887,332.3716H439.0863c2.4109,0,3.5494,0,3.7235-3.1609a216.1916,216.1916,0,0,0,0-34.5963c0-2.2368-1.1116-3.161-3.536-3.161H214.19c-2.7859,0-3.536.9242-3.536,3.536v33.11c0,4.2726,0,4.2726,4.46,4.2726Zm104.1907-79.613a3.6206,3.6206,0,0,0,0-2.5984,73.5484,73.5484,0,0,0-6.7237-11.72,94.9,94.9,0,0,0-13.7688-17.3048,45.642,45.642,0,0,0-8.5587-8.3712A133.7153,133.7153,0,0,0,345.316,184.49a138.7415,138.7415,0,0,0-31.6228-3.3485H213.8019c-2.7859,0-3.161,1.1117-3.161,3.536v66.0317c0,2.7859,0,3.5359,3.536,3.5359H428.84s1.8617-.375,2.2367-1.4867h-.8974Zm0,118.3078a43.4163,43.4163,0,0,0-9.51,0H214.3778c-2.7859,0-3.7235,0-3.7235,3.7235v64.5584c0,2.9734,0,3.7235,3.7235,3.7235h95.2436a47.576,47.576,0,0,0,13.568-.9242,141.7876,141.7876,0,0,0,40.3824-8.9337,73.9145,73.9145,0,0,0,13.568-6.3219h1.2992A120.8522,120.8522,0,0,0,430.34,374.6426s1.2992-2.8127-.1608-3.5494ZM173.2721,476.543V373.6782c0-2.4242,0-2.7859-2.9734-2.7859H129.93c-2.2367,0-3.1609,0-3.1609-2.9734V332.5726h43.155c2.4109,0,3.3484,0,3.3484-3.161V294.44c0-2.2368,0-2.7859-2.9734-2.7859H129.93c-2.2367,0-3.1609,0-3.1609-2.9735V255.9464c0-2.0493,0-2.5984,2.9734-2.5984h39.994c2.786,0,3.536,0,3.536-3.536V149.5457c0-2.9735,0-3.7235,3.7235-3.7235h139.51a212.5689,212.5689,0,0,1,30.1361,3.3484,181.834,181.834,0,0,1,58.2231,21.5775A164.0853,164.0853,0,0,1,437.6,196.0491a179.2518,179.2518,0,0,1,19.9033,24.7384,149.1963,149.1963,0,0,1,14.5323,28.4619,4.8439,4.8439,0,0,0,5.5584,3.911h33.2972c4.2726,0,4.2726,0,4.46,4.0986V287.77c0,2.9735-1.1117,3.7235-4.0985,3.7235h-25.676c-2.5984,0-3.3485,0-3.161,3.3485a190.0171,190.0171,0,0,1,0,34.0337c0,3.161,0,3.536,3.5494,3.536h29.3727c1.2992,1.6742,0,3.3485,0,5.0361a37.58,37.58,0,0,1,0,6.496V366.459c0,3.1609-.9242,4.0985-3.7235,4.0985H476.4552a4.6543,4.6543,0,0,0-5.3978,3.536,148.7526,148.7526,0,0,1-39.07,56.9238A224.0558,224.0558,0,0,1,412.0843,447.01c-7.4469,4.286-14.693,8.7462-22.3275,12.2822a201.1339,201.1339,0,0,1-43.905,13.943,228.8938,228.8938,0,0,1-43.53,3.536H173.2185v-.1876Z"/></g></g><g id="WHITE_RING_FOR_BLACK_BG_copy" data-name="WHITE RING FOR BLACK BG copy"><circle class="cls-3" cx="310.5535" cy="311.0156" r="297"/></g></svg>