<svg xmlns="http://www.w3.org/2000/svg" viewBox="0 0 620 620"><defs><style>.cls-1{fill:#12b5ec;}.cls-2{fill:#fff;}.cls-3{fill:none;stroke:#fff;stroke-miterlimit:10;stroke-width:7px;}</style></defs><g id="ALL_logo_s" data-name="ALL logo&apos;s"><circle class="cls-1" cx="310" cy="310" r="295.795"/><path class="cls-2" d="M295.8985,150.3449c7.9123-4.158,19.9517-4.158,27.864,0l80.7381,42.4283c4.7652,2.5041,7.3823,6.2357,7.8512,10.0878h.0769V416.1279c-.1048,4.2015-2.7466,8.3752-7.9281,11.0991l-80.7381,42.4279c-7.9123,4.1583-19.9517,4.1583-27.864,0L215.1607,427.227c-5.16-2.7112-7.6361-6.9153-7.7587-11.0991-.0122-.412-.0138-.7554-.0021-1.04l0-210.8567q-.0122-.3465-.0023-.6913l.0049-.6786.0361,0c.3586-3.8944,2.8569-7.5306,7.7226-10.0876Zm103.82,171.4965L323.7625,361.757c-7.9123,4.1581-19.9517,4.1581-27.864,0l-75.79-39.8265v93.7752l75.79,39.6175c4.28,2.2762,8.7216,4.494,13.0648,4.7763l.8673.028c4.5259.0153,8.92-2.2712,13.3754-4.4356l76.5126-40.327ZM194.27,411.4914c0,8.1691.9545,13.5407,2.85,17.3252,1.5707,3.1359,3.9275,5.5317,8.2309,8.4489l.2457.1653c.9444.6333,1.9848,1.2971,3.2511,2.0754l1.4935.9105,4.5859,2.7544-6.5773,10.8194-5.1329-3.0851-.8627-.5265c-1.4842-.913-2.7142-1.6938-3.8616-2.4645-12.2648-8.2276-16.8389-17.1954-16.9291-35.8559l-.0014-.5671ZM303.4746,264.68a11.6026,11.6026,0,0,0-1.641.6972L221.0958,307.805q-.127.0667-.2424.132l-.0684.04.1266.072.1842.0994,80.7378,42.4284a11.6026,11.6026,0,0,0,1.641.6972Zm12.7121,0v86.5942a11.5936,11.5936,0,0,0,1.6407-.6972l80.7381-42.4284q.127-.0668.2423-.132l.0685-.0394-.127-.0722-.1838-.0995-80.7381-42.4283A11.5936,11.5936,0,0,0,316.1867,264.68Zm83.5319-46.69-72.4265,38.061,72.4265,38.061Zm-179.61.0891v75.9439l72.2586-37.972Zm97.7189-56.5532c-4.1986-2.2064-11.795-2.2064-15.9938,0l-80.7378,42.4285q-.127.0667-.2424.132l-.0684.0394.1266.0723.1842.0994,80.7378,42.4284c4.1988,2.2063,11.7952,2.2063,15.9938,0l80.7381-42.4284q.127-.0667.2423-.1323l.0685-.0394-.127-.0722-.1838-.0992Zm93.8232,4.6527,5.133,3.0843.8627.527c1.484.9115,2.714,1.6945,3.8615,2.4642,12.2647,8.2269,16.8389,17.1964,16.928,35.8553l.0025.5685H425.73c0-8.1712-.9545-13.5417-2.85-17.3255-1.5708-3.1359-3.9277-5.5325-8.231-8.4487l-.2457-.1655c-.9443-.6336-1.9848-1.2971-3.2511-2.0772l-1.4935-.91-4.5859-2.7534Z"/></g><g id="WHITE_RING_FOR_BLACK_BG_copy" data-name="WHITE RING FOR BLACK BG copy"><circle class="cls-3" cx="308.6595" cy="309.5709" r="297"/></g></svg>