<svg xmlns="http://www.w3.org/2000/svg" xmlns:xlink="http://www.w3.org/1999/xlink" viewBox="0 0 620 620"><defs><style>.cls-1{fill:#312f30;}.cls-2,.cls-6{fill:none;}.cls-2{stroke-width:19.8px;stroke:url(#radial-gradient);}.cls-3{fill:#12b5ec;stroke-width:4px;}.cls-3,.cls-6{stroke:#fff;stroke-miterlimit:10;}.cls-4{filter:url(#filter);}.cls-5{fill:#fff;}.cls-6{stroke-width:7px;}</style><radialGradient id="radial-gradient" cx="1526.2055" cy="-404.944" r="3.3" gradientTransform="matrix(123.1999, 134.4425, 134.4425, -123.1999, -133447.5571, -254945.5263)" gradientUnits="userSpaceOnUse"><stop offset="0.2729" stop-color="#66bcea"/><stop offset="0.5659" stop-color="#f3f7fc"/><stop offset="0.7448" stop-color="#d3e199"/><stop offset="1" stop-color="#5771b4"/></radialGradient><filter id="filter"><feOffset dx="7" dy="7" input="SourceAlpha"/><feGaussianBlur stdDeviation="5" result="blur"/><feFlood/><feComposite operator="in" in2="blur"/><feComposite in="SourceGraphic"/></filter></defs><g id="ALL_logo_s" data-name="ALL logo&apos;s"><circle class="cls-1" cx="310" cy="310" r="297"/><circle class="cls-1" cx="310" cy="310" r="297"/><circle class="cls-2" cx="310" cy="310" r="254.1"/><path id="Static_Icon" data-name="Static Icon" class="cls-3" d="M222.8029,294.5873,364.9794,173.3558a3.3,3.3,0,0,1,4.9665,4.2161l-54.0177,89.531a9.9,9.9,0,0,0,4.6566,14.2477l67.8873,28.3952a3.2988,3.2988,0,0,1,.858,5.5642L247.2473,435.4666a3.3008,3.3008,0,0,1-4.9757-4.1943l52.4465-89.2353a9.9,9.9,0,0,0-4.7147-14.15l-66.3326-27.7445A3.3,3.3,0,0,1,222.8029,294.5873Z"/><g class="cls-4"><path class="cls-5" d="M176.7292,505.8318v20.5508H144.4348v86.5307H120.33V526.3826H88.0353V505.8318Z"/><path class="cls-5" d="M268.1559,517.2663q1.8509,6.3376,4.0874,14.293,2.2383,7.96,4.7832,16.4561,2.5423,8.5,5.1666,16.997,2.622,8.5,5.0917,15.7608,2.0172-7.88,4.1143-17.1514,2.0933-9.2709,3.957-19.16,1.8618-9.8869,3.648-19.7012,1.7856-9.8107,3.3393-18.9287h25.0391q-5.44,26.8864-12.5137,54.5449-7.0722,27.6613-15.309,52.5366H277.5119q-5.4-14.8337-10.4883-31.1357-5.0917-16.3-10.0244-32.6807-4.95,16.3806-9.9014,32.6807-4.95,16.3044-10.3647,31.1357H214.7023q-8.2279-24.876-15.2856-52.5366-7.062-27.657-12.4917-54.5449h26.1138q1.55,9.1194,3.4165,18.9287,1.8611,9.8145,3.8818,19.7012,2.0178,9.89,4.1143,19.16t4.2709,17.1514q2.7848-7.5688,5.418-16.07,2.6294-8.4961,5.1089-16.9971,2.4771-8.4962,4.5654-16.3789,2.09-7.88,3.793-14.0611Z"/><path class="cls-5" d="M408.339,612.9133q-1.7892-5.5811-3.8437-11.4634-2.0567-5.8813-4.0972-11.7143H358.5768q-2.028,5.8593-4.0659,11.7456-2.0391,5.8887-3.7954,11.4321H325.6838q6.0439-17.3034,11.4677-31.9853,5.425-14.6785,10.6163-27.6587,5.1928-12.98,10.2295-24.646t10.4638-22.7915h22.85q5.2764,11.1255,10.4009,22.7915,5.1212,11.6689,10.3237,24.646,5.2009,12.9792,10.6328,27.6587,5.4324,14.6814,11.4878,31.9853Zm-28.96-82.8222q-.8071,2.3327-2.3608,6.3476t-3.5372,9.2783q-1.9848,5.2617-4.4375,11.5889t-4.9833,13.269h30.621q-2.4586-6.9637-4.7607-13.31t-4.3774-11.6109q-2.075-5.2617-3.6382-9.2734Q380.3393,532.3714,379.3786,530.0911Z"/><path class="cls-5" d="M480.0471,504.5955q23.9494,0,36.7753,8.4213,12.8241,8.4237,12.8252,27.5816,0,19.3176-12.98,27.8906-12.98,8.576-37.0844,8.5762h-7.5718v35.8481h-24.105V507.3772a136.8476,136.8476,0,0,1,16.688-2.1636Q473.4031,504.5985,480.0471,504.5955Zm1.5449,20.5512q-2.6287,0-5.1763.1543-2.55.156-4.4038.3091v30.9038h7.5718q12.5155,0,18.8511-3.3994,6.3339-3.3971,6.3354-12.67a15.2072,15.2072,0,0,0-1.6226-7.417,12.3516,12.3516,0,0,0-4.6357-4.7129,20.9176,20.9176,0,0,0-7.3394-2.4722A60.6751,60.6751,0,0,0,481.592,525.1467Z"/></g></g><g id="WHITE_RING_FOR_BLACK_BG_copy" data-name="WHITE RING FOR BLACK BG copy"><circle class="cls-6" cx="310" cy="310" r="297"/></g></svg>