<?xml version="1.0" encoding="utf-8"?>
<!-- Generator: Adobe Illustrator 26.2.0, SVG Export Plug-In . SVG Version: 6.00 Build 0)  -->
<svg version="1.1" xmlns="http://www.w3.org/2000/svg" xmlns:xlink="http://www.w3.org/1999/xlink" x="0px" y="0px"
	 viewBox="0 0 620 620" style="enable-background:new 0 0 620 620;" xml:space="preserve">
<style type="text/css">
	.st0{display:none;}
	.st1{display:inline;fill:#1D1D1B;stroke:#FFFFFF;stroke-width:1.1562;stroke-miterlimit:10;}
	.st2{fill:#F5AC37;}
	.st3{fill:#FEFEFD;}
	.st4{fill:#312F30;}
	.st5{fill:#FFFFFF;}
	.st6{fill:#12B5EC;}
	.st7{fill:#2775CA;}
	.st8{opacity:0.5;fill:#FFFFFF;enable-background:new    ;}
	.st9{opacity:0.7;fill:#FFFFFF;enable-background:new    ;}
	.st10{fill:none;stroke:url(#SVGID_1_);stroke-width:19.7603;}
	.st11{clip-path:url(#SVGID_00000078003978840245275130000014695800504339291290_);fill:#F0B90B;}
	.st12{clip-path:url(#SVGID_00000102541190791084245310000018174358707551956113_);fill:#FFFFFF;}
	.st13{fill:none;stroke:url(#SVGID_00000105391941374529826230000003594395323369499321_);stroke-width:19.7603;}
	.st14{fill:none;stroke:url(#SVGID_00000019672560962469148100000006478911799935295122_);stroke-width:19.6714;}
	.st15{clip-path:url(#SVGID_00000150805340140558828060000012633598633027097995_);}
	.st16{fill:#40D5E1;}
	.st17{fill:#00E58D;}
	.st18{fill:none;stroke:url(#SVGID_00000058590905602941754090000005150813328557460865_);stroke-width:19.8;}
	.st19{opacity:0.5;fill:#12B5EC;stroke:#FFFFFF;stroke-width:4;stroke-miterlimit:10;enable-background:new    ;}
	.st20{opacity:0.7;fill:#12B5EC;stroke:#FFFFFF;stroke-width:4;stroke-miterlimit:10;enable-background:new    ;}
	.st21{fill:#12B5EC;stroke:#FFFFFF;stroke-width:4;stroke-miterlimit:10;}
	.st22{fill:none;stroke:url(#SVGID_00000072247093207754588760000010370394034972912309_);stroke-width:19.8;}
	.st23{fill:none;stroke:url(#SVGID_00000124862557494307555920000006142724759193588106_);stroke-width:19.8;}
	.st24{fill:none;stroke:url(#SVGID_00000109716684155613466510000016241377737809202862_);stroke-width:19.8;}
	.st25{fill:none;stroke:url(#SVGID_00000183236923475123089390000005590453163527687824_);stroke-width:19.8;}
	.st26{fill:none;stroke:url(#SVGID_00000016037075221806474940000006806060223605663672_);stroke-width:19.8;}
	.st27{opacity:0.89;}
	.st28{fill:none;stroke:url(#SVGID_00000174598675829870401400000002523450258544167837_);stroke-width:19.8;}
	.st29{fill:none;stroke:url(#SVGID_00000060001255999439810330000003959291212436448135_);stroke-width:19.8;}
	.st30{fill:none;stroke:url(#SVGID_00000116920189300003828490000002176039543601204870_);stroke-width:19.8;}
	.st31{fill:none;stroke:url(#SVGID_00000091727415263208475270000004011750368288667279_);stroke-width:19.6457;}
	.st32{fill:#12B5EC;stroke:#FFFFFF;stroke-width:3.9688;stroke-miterlimit:10;}
	.st33{opacity:0.5;fill:#12B5EC;stroke:#FFFFFF;stroke-width:3.9843;stroke-miterlimit:10;enable-background:new    ;}
	.st34{opacity:0.7;fill:#12B5EC;stroke:#FFFFFF;stroke-width:3.9843;stroke-miterlimit:10;enable-background:new    ;}
	.st35{fill:#12B5EC;stroke:#FFFFFF;stroke-width:3.9843;stroke-miterlimit:10;}
	.st36{fill:none;stroke:url(#SVGID_00000133490651769732111960000006625888799139798455_);stroke-width:19.7224;}
	.st37{fill:none;stroke:url(#SVGID_00000001629932785637331710000015500200230208557220_);stroke-width:19.7356;}
	.st38{clip-path:url(#SVGID_00000029023457282753595280000011079749924224787883_);fill:#F0B90B;}
	.st39{clip-path:url(#SVGID_00000068664617897649606620000002702498851895672224_);fill:#FFFFFF;}
	.st40{fill:none;stroke:url(#SVGID_00000156551158834059032960000006683183388904036002_);stroke-width:19.7356;}
	.st41{clip-path:url(#SVGID_00000008134413196474346370000004652818449504327083_);fill:#F0B90B;}
	.st42{clip-path:url(#SVGID_00000074434710529254077910000000297639846906921366_);fill:#FFFFFF;}
	.st43{fill:#F3BA2C;}
	.st44{fill-rule:evenodd;clip-rule:evenodd;fill:#633001;}
	.st45{fill:#FEDC90;}
	.st46{fill-rule:evenodd;clip-rule:evenodd;fill:#D1884F;}
	.st47{fill:#633001;}
	.st48{display:inline;fill:none;stroke:#FFFFFF;stroke-width:5;stroke-miterlimit:10;}
	.st49{display:inline;}
	.st50{fill:#FFFFFF;stroke:#FFFFFF;stroke-width:5;stroke-miterlimit:10;}
	.st51{fill:none;stroke:#FFFFFF;stroke-width:7;stroke-miterlimit:10;}
	.st52{fill:#FFFFFF;stroke:#FFFFFF;stroke-width:7;stroke-miterlimit:10;}
	.st53{display:inline;fill:none;stroke:url(#SVGID_00000044169720554146485350000001007098701790031787_);stroke-width:19.8;}
	.st54{fill:#312F30;stroke:#FFFFFF;stroke-width:3;stroke-miterlimit:10;}
	.st55{fill:none;stroke:url(#SVGID_00000159429937025298635540000017467182730093332906_);stroke-width:19.8;}
	.st56{fill:url(#Static_Icon_00000114783567615990627770000001942183295714481044_);}
	.st57{fill:none;stroke:url(#SVGID_00000106116646458254254130000001816917110844779666_);stroke-width:19.8;}
	.st58{fill:none;stroke:#12B5EC;stroke-width:3.4648;stroke-miterlimit:10;}
	.st59{fill:none;stroke:#12B5EC;stroke-width:1.7569;stroke-miterlimit:10;}
	.st60{fill:none;stroke:#12B5EC;stroke-width:0.8784;stroke-miterlimit:10;}
	.st61{fill:none;stroke:#12B5EC;stroke-width:4;stroke-miterlimit:10;}
	.st62{fill:none;stroke:url(#SVGID_00000047764498896435623940000012659784369883221142_);stroke-width:19.8;}
	.st63{fill:none;stroke:url(#SVGID_00000136382122963829554120000016064803728776831150_);stroke-width:19.8;}
	.st64{fill:none;stroke:url(#SVGID_00000024002124732041468210000013069941537925425333_);stroke-width:19.8;}
	.st65{fill:none;stroke:url(#SVGID_00000037652223664306339170000011088364307068333456_);stroke-width:19.8;}
	.st66{fill:none;stroke:#12B5EC;stroke-width:11;stroke-miterlimit:10;}
	.st67{fill:none;stroke:url(#SVGID_00000098184010412245323140000016987627218244101784_);stroke-width:19.8;}
	.st68{fill:#FFFFFF;stroke:#12B5EC;stroke-width:6;stroke-miterlimit:10;}
	.st69{fill:none;stroke:#12B5EC;stroke-width:5.6886;stroke-miterlimit:10;}
	.st70{fill:none;stroke:#12B5EC;stroke-width:5.8358;stroke-miterlimit:10;}
	.st71{display:inline;fill-rule:evenodd;clip-rule:evenodd;fill:#FFFFFF;}
	.st72{display:inline;fill:#312F30;}
	.st73{display:inline;fill-rule:evenodd;clip-rule:evenodd;fill:#312F30;}
	.st74{display:inline;fill:url(#SVGID_00000013195318113658743380000013371385331144834945_);}
</style>
<g id="BG_FOR_DARK_VERSION" class="st0">
	<rect x="-3199.927" y="-1793.2177" class="st1" width="4854.8887" height="5218.2949"/>
</g>
<g id="ALL_logo_x27_s">
	<g>
		<circle class="st16" cx="310" cy="310" r="295.795"/>
	</g>
	<g>
		<path class="st44" d="M170.122,156.8883c-6.6879-34.7773,20.0638-66.8794,54.8411-66.8794
			c30.7645,0,56.1787,25.4142,56.1787,56.1787v69.5546c8.0255,0,16.0511-1.3376,24.0766-1.3376s14.7135,0,22.739,1.3376v-69.5546
			c0-30.7645,25.4142-56.1787,56.1787-56.1787c34.7773,0,61.5291,32.1021,56.1787,66.8794l-14.7135,81.5928
			c52.1659,22.739,92.2936,62.8666,92.2936,112.3574v30.7645c0,41.4652-26.7518,76.2425-65.5418,98.9815
			c-38.79,24.0766-89.6184,37.4524-147.1346,37.4524s-108.3446-13.3759-147.1347-37.4524
			c-37.4525-22.739-64.2042-57.5163-64.2042-98.9815v-30.7645c0-49.4908,38.79-89.6184,90.956-112.3574L170.122,156.8883z
			 M405.5374,249.1819l17.3886-96.3063c4.0128-24.0766-13.3759-46.8156-38.79-46.8156c-21.4014,0-38.79,17.3886-38.79,38.79v88.2808
			c-5.3503-1.3376-12.0383-1.3376-17.3886-1.3376c-8.0255,0-14.7135-1.3376-22.739-1.3376s-16.0511,0-24.0766,1.3376
			c-5.3503,0-12.0383,1.3376-17.3886,1.3376v-86.9432c0-21.4014-17.3887-38.79-38.7901-38.79
			c-24.0766,0-42.8028,22.739-37.4525,46.8156l17.3886,96.3063c-56.1787,21.4014-93.6311,58.8539-93.6311,101.6567v30.7645
			c0,65.5418,86.9432,119.0453,193.9502,119.0453s193.9502-53.5035,193.9502-119.0453v-30.7645
			C500.5062,308.0357,463.0537,270.5833,405.5374,249.1819z"/>
		<path class="st45" d="M500.5062,381.6031c0,65.5418-86.9432,119.0453-193.9502,119.0453s-193.9502-53.5035-193.9502-119.0453
			v-30.7645h389.238v30.7645H500.5062z"/>
		<path class="st46" d="M187.5106,154.2132c-5.3504-24.0766,13.3759-46.8156,37.4525-46.8156c21.4014,0,38.79,17.3886,38.79,38.79
			v88.2808c13.3759-1.3376,26.7518-2.6752,41.4652-2.6752c13.3759,0,26.7517,1.3376,40.1276,2.6752v-88.2808
			c0-21.4014,17.3886-38.79,38.79-38.79c24.0766,0,42.8028,22.739,38.79,46.8156l-17.3886,96.3063
			c56.1787,21.4014,94.9688,58.8539,94.9688,101.6567c0,65.5418-86.9432,119.0453-193.9502,119.0453
			S112.6057,417.718,112.6057,352.1761c0-42.8028,37.4525-80.2552,93.6311-101.6567L187.5106,154.2132z"/>
		<path class="st47" d="M251.7149,342.813c0,17.3886-9.3631,32.1021-21.4014,32.1021c-12.0383,0-21.4014-14.7135-21.4014-32.1021
			c0-17.3886,9.3631-32.1021,21.4014-32.1021S251.7149,325.4244,251.7149,342.813z"/>
		<path class="st47" d="M400.1871,342.813c0,17.3886-9.3631,32.1021-21.4014,32.1021c-12.0383,0-21.4014-14.7135-21.4014-32.1021
			c0-17.3886,9.3631-32.1021,21.4014-32.1021C390.824,310.7109,400.1871,325.4244,400.1871,342.813z"/>
	</g>
</g>
<g id="WHITE_RING_FOR_BLACK_BG_5_points" class="st0">
	<circle class="st48" cx="310.5535" cy="311.0156" r="297"/>
</g>
<g id="WHITE_RING_FOR_BLACK_BG_copy">
	<circle class="st51" cx="310.5535" cy="311.0156" r="297"/>
</g>
<g id="used" class="st0">
</g>
</svg>
