<svg xmlns="http://www.w3.org/2000/svg" xmlns:xlink="http://www.w3.org/1999/xlink" viewBox="0 0 1074.913 678.4622"><defs><style>.cls-1{fill:#2775ca;}.cls-2{fill:#fff;}.cls-3{fill:#312f30;}.cls-4,.cls-6{fill:none;}.cls-4{stroke-width:19.6457px;stroke:url(#radial-gradient);}.cls-5{fill:#12b5ec;stroke-width:3.9688px;}.cls-5,.cls-6{stroke:#fff;stroke-miterlimit:10;}.cls-6{stroke-width:7px;}</style><radialGradient id="radial-gradient" cx="800.1484" cy="-1200.2198" r="3.2743" gradientTransform="matrix(123.1999, 134.4425, 134.4425, -123.1999, 62925.3443, -255282.1926)" gradientUnits="userSpaceOnUse"><stop offset="0.2729" stop-color="#66bcea"/><stop offset="0.5659" stop-color="#f3f7fc"/><stop offset="0.7448" stop-color="#d3e199"/><stop offset="1" stop-color="#5771b4"/></radialGradient></defs><g id="ALL_logo_s" data-name="ALL logo&apos;s"><path class="cls-1" d="M738.2337,630.9926a296.301,296.301,0,1,0-296.301-296.3009A295.5886,295.5886,0,0,0,738.2337,630.9926Z"/><path class="cls-2" d="M819.7164,381.605c0-43.21-25.9263-58.0246-77.779-64.1966-37.0376-4.9393-44.4451-14.815-44.4451-32.1012s12.3469-28.3945,37.0376-28.3945c22.2226,0,34.5695,7.4075,40.7414,25.9263a9.2855,9.2855,0,0,0,8.6431,6.1719h19.7514a8.4386,8.4386,0,0,0,8.6432-8.64v-1.2356a61.6791,61.6791,0,0,0-55.5565-50.6171v-29.63c0-4.9393-3.7037-8.643-9.8757-9.8786H728.358c-4.9393,0-8.6431,3.7037-9.8787,9.8786v28.3946c-37.0376,4.9393-60.4928,29.63-60.4928,60.4957,0,40.7414,24.6908,56.7891,76.5435,62.964,34.5694,6.1719,45.6807,13.5794,45.6807,33.3338S762.9245,417.41,739.4693,417.41c-32.1012,0-43.2125-13.5824-46.9163-32.1012-1.2326-4.9364-4.9363-7.4076-8.64-7.4076h-20.99a8.4387,8.4387,0,0,0-8.64,8.6431V387.78c4.9364,30.8627,24.6908,53.0853,65.4321,59.26v29.63c0,4.9364,3.7038,8.64,9.8758,9.8757H748.11c4.9393,0,8.6431-3.7037,9.8787-9.8757V447.04c37.0376-6.1749,61.7283-32.1012,61.7283-65.4351Z"/><path class="cls-2" d="M675.27,511.2367C578.9719,476.67,529.5874,369.2611,565.3925,274.1959c18.5188-51.8527,59.26-91.3585,109.8772-109.8773,4.9394-2.4682,7.4076-6.1719,7.4076-12.3469V134.6885c0-4.9393-2.4682-8.6431-7.4076-9.8757-1.2355,0-3.7037,0-4.9393,1.2326C553.0456,163.083,488.8461,287.7784,525.8837,405.0631A222.0987,222.0987,0,0,0,670.33,549.51c4.9393,2.4681,9.8787,0,11.1113-4.9394,1.2356-1.2326,1.2356-2.4682,1.2356-4.9364V522.3479C682.6773,518.6442,678.9735,513.7078,675.27,511.2367ZM806.137,126.0454c-4.9394-2.4682-9.8787,0-11.1113,4.9394-1.2356,1.2355-1.2356,2.4681-1.2356,4.9393v17.2832c0,4.9394,3.7038,9.8758,7.4075,12.3469C897.4954,200.1207,946.88,307.53,911.0749,402.5949c-18.5188,51.8527-59.26,91.3585-109.8773,109.8773-4.9393,2.4682-7.4075,6.1719-7.4075,12.3469v17.2832c0,4.9394,2.4682,8.6432,7.4075,9.8757,1.2356,0,3.7038,0,4.9394-1.2326,117.2848-37.0376,181.4843-161.7329,144.4467-279.0177A223.9134,223.9134,0,0,0,806.137,126.0454Z"/><circle class="cls-3" cx="312.5965" cy="336.9159" r="294.6848"/><circle class="cls-3" cx="312.5965" cy="336.9159" r="294.6848"/><circle class="cls-4" cx="312.5965" cy="336.9159" r="252.1192"/><path id="Static_Icon" data-name="Static Icon" class="cls-5" d="M226.0791,321.6233,367.1474,201.3369a3.2742,3.2742,0,0,1,4.9277,4.1832l-53.5966,88.8331a9.8227,9.8227,0,0,0,4.62,14.1366l67.3581,28.1739a3.273,3.273,0,0,1,.8513,5.5207L250.333,461.4044a3.2751,3.2751,0,0,1-4.9369-4.1616l52.0377-88.54a9.8229,9.8229,0,0,0-4.678-14.0394L226.94,327.1355A3.2743,3.2743,0,0,1,226.0791,321.6233Z"/></g><g id="WHITE_RING_FOR_BLACK_BG_copy" data-name="WHITE RING FOR BLACK BG copy"><path class="cls-6" d="M739.2231,38.2293A296.371,296.371,0,0,0,524.4958,129.948,294.9092,294.9092,0,0,0,311.78,39.6686c-163.3628,0-295.795,132.432-295.795,295.7951S148.417,631.2586,311.78,631.2586a294.9091,294.9091,0,0,0,212.716-90.2793A296.3706,296.3706,0,0,0,739.2231,632.698c164.1582,0,297.2344-133.0764,297.2344-297.2343S903.3813,38.2293,739.2231,38.2293Z"/></g></svg>