<svg xmlns="http://www.w3.org/2000/svg" xmlns:xlink="http://www.w3.org/1999/xlink" viewBox="0 0 1074.913 678.4622"><defs><style>.cls-1{fill:#f5ac37;}.cls-2{fill:#fefefd;}.cls-3{fill:#312f30;}.cls-4{fill:#fff;}.cls-5,.cls-6{fill:none;}.cls-5{stroke-width:19.7356px;stroke:url(#radial-gradient);}.cls-6{stroke:#fff;stroke-miterlimit:10;stroke-width:7px;}</style><radialGradient id="radial-gradient" cx="-482.7696" cy="-2893.4522" r="3.2893" gradientTransform="matrix(123.1999, 134.4425, 134.4425, -123.1999, 448628.4695, -291422.9155)" gradientUnits="userSpaceOnUse"><stop offset="0.2729" stop-color="#66bcea"/><stop offset="0.5659" stop-color="#f3f7fc"/><stop offset="0.7448" stop-color="#d3e199"/><stop offset="1" stop-color="#5771b4"/></radialGradient></defs><g id="ALL_logo_s" data-name="ALL logo&apos;s"><g id="Layer_1"><path class="cls-1" d="M749.1141,27.1165c164.3961,0,297.6381,133.2687,297.6381,297.638,0,164.396-133.242,297.638-297.6381,297.638-164.3692,0-297.638-133.2553-297.638-297.638C451.4761,160.3852,584.7449,27.1165,749.1141,27.1165Z"/><path class="cls-2" d="M760.0837,345.7694H873.1813c2.4109,0,3.5494,0,3.7235-3.1609a216.1916,216.1916,0,0,0,0-34.5963c0-2.2368-1.1117-3.161-3.536-3.161H648.2853c-2.786,0-3.536.9242-3.536,3.536v33.11c0,4.2726,0,4.2726,4.46,4.2726Zm104.1907-79.613a3.6206,3.6206,0,0,0,0-2.5984,73.556,73.556,0,0,0-6.7237-11.72,94.9,94.9,0,0,0-13.7688-17.3048,45.642,45.642,0,0,0-8.5587-8.3712A133.7153,133.7153,0,0,0,779.411,197.888a138.7415,138.7415,0,0,0-31.6228-3.3485H647.8969c-2.7859,0-3.161,1.1117-3.161,3.536v66.0317c0,2.7859,0,3.5359,3.536,3.5359H862.935s1.8618-.375,2.2368-1.4867h-.8974Zm0,118.3078a43.4163,43.4163,0,0,0-9.51,0H648.4728c-2.7859,0-3.7235,0-3.7235,3.7235v64.5584c0,2.9734,0,3.7235,3.7235,3.7235h95.2436a47.5762,47.5762,0,0,0,13.568-.9242,141.7876,141.7876,0,0,0,40.3824-8.9337,73.9175,73.9175,0,0,0,13.568-6.3219h1.2992A120.8522,120.8522,0,0,0,864.4352,388.04s1.2992-2.8127-.1608-3.5494ZM607.3671,489.9408V387.0761c0-2.4243,0-2.7859-2.9734-2.7859H564.0246c-2.2367,0-3.1609,0-3.1609-2.9735V345.97h43.1549c2.4109,0,3.3485,0,3.3485-3.161V307.8381c0-2.2368,0-2.7859-2.9734-2.7859H564.0246c-2.2367,0-3.1609,0-3.1609-2.9735V269.3442c0-2.0493,0-2.5984,2.9734-2.5984h39.994c2.786,0,3.536,0,3.536-3.536V162.9435c0-2.9735,0-3.7235,3.7235-3.7235h139.51a212.5689,212.5689,0,0,1,30.1361,3.3484A181.834,181.834,0,0,1,838.96,184.1459a164.0853,164.0853,0,0,1,32.7345,25.301,179.2592,179.2592,0,0,1,19.9033,24.7384A149.2021,149.2021,0,0,1,906.13,262.6472a4.8439,4.8439,0,0,0,5.5584,3.911h33.2972c4.2726,0,4.2726,0,4.46,4.0986v30.5111c0,2.9735-1.1117,3.7235-4.0985,3.7235h-25.676c-2.5985,0-3.3485,0-3.161,3.3485a190.0171,190.0171,0,0,1,0,34.0337c0,3.161,0,3.536,3.5494,3.536h29.3727c1.2992,1.6743,0,3.3485,0,5.0361a37.58,37.58,0,0,1,0,6.496v22.5151c0,3.1609-.9242,4.0985-3.7235,4.0985H910.55a4.6543,4.6543,0,0,0-5.3977,3.536,148.7526,148.7526,0,0,1-39.07,56.9238,224.0558,224.0558,0,0,1-19.9033,15.9923c-7.4469,4.286-14.693,8.7462-22.3275,12.2822a201.1356,201.1356,0,0,1-43.905,13.943,228.8938,228.8938,0,0,1-43.53,3.536H607.3135v-.1876Z"/></g><circle class="cls-3" cx="318.8464" cy="324.361" r="296.0334"/><circle class="cls-3" cx="318.8464" cy="324.361" r="296.0334"/><path id="Static_Icon" data-name="Static Icon" class="cls-4" d="M235.8482,314.5743,377.5621,193.7374a3.2893,3.2893,0,0,1,4.95,4.2024l-53.8419,89.24a9.8678,9.8678,0,0,0,4.6415,14.2014l67.6663,28.3028a3.288,3.288,0,0,1,.8552,5.546l-141.62,119.7656a3.29,3.29,0,0,1-4.9595-4.1807L307.5294,361.87A9.8678,9.8678,0,0,0,302.83,347.766l-66.1168-27.6542A3.2894,3.2894,0,0,1,235.8482,314.5743Z"/><circle class="cls-5" cx="318.8464" cy="324.361" r="253.2731"/></g><g id="WHITE_RING_FOR_BLACK_BG_copy" data-name="WHITE RING FOR BLACK BG copy"><path class="cls-6" d="M746.6671,27.1142A296.37,296.37,0,0,0,531.94,118.833,294.9093,294.9093,0,0,0,319.2238,28.5536c-163.3628,0-295.7949,132.432-295.7949,295.795S155.861,620.1435,319.2238,620.1435A294.9092,294.9092,0,0,0,531.94,529.8642,296.37,296.37,0,0,0,746.6671,621.583c164.1582,0,297.2344-133.0764,297.2344-297.2344S910.8253,27.1142,746.6671,27.1142Z"/></g></svg>