<svg xmlns="http://www.w3.org/2000/svg" xmlns:xlink="http://www.w3.org/1999/xlink" viewBox="0 0 620 620"><defs><style>.cls-1{fill:#312f30;}.cls-2{fill:#fff;}.cls-3,.cls-4{fill:none;}.cls-3{stroke-width:19.8px;stroke:url(#radial-gradient);}.cls-4{stroke:#fff;stroke-miterlimit:10;stroke-width:7px;}</style><radialGradient id="radial-gradient" cx="783.6093" cy="1230.3746" r="3.3" gradientTransform="matrix(123.1999, 134.4425, 134.4425, -123.1999, -261816.0546, 46361.9716)" gradientUnits="userSpaceOnUse"><stop offset="0.2729" stop-color="#66bcea"/><stop offset="0.5659" stop-color="#f3f7fc"/><stop offset="0.7448" stop-color="#d3e199"/><stop offset="1" stop-color="#5771b4"/></radialGradient></defs><g id="ALL_logo_s" data-name="ALL logo&apos;s"><circle class="cls-1" cx="310" cy="310" r="297"/><circle class="cls-1" cx="310" cy="310" r="297"/><path id="Static_Icon" data-name="Static Icon" class="cls-2" d="M226.7308,300.1814,368.9073,178.95a3.3,3.3,0,0,1,4.9665,4.2161L319.8561,272.697a9.9,9.9,0,0,0,4.6566,14.2478L392.4,315.34a3.2988,3.2988,0,0,1,.858,5.5641L251.1752,441.0607a3.3008,3.3008,0,0,1-4.9757-4.1943l52.4465-89.2353a9.9,9.9,0,0,0-4.7147-14.15L227.5987,305.737A3.3,3.3,0,0,1,226.7308,300.1814Z"/><circle class="cls-3" cx="310" cy="310" r="254.1"/></g><g id="WHITE_RING_FOR_BLACK_BG_copy" data-name="WHITE RING FOR BLACK BG copy"><circle class="cls-4" cx="310" cy="310" r="297"/></g></svg>