<svg xmlns="http://www.w3.org/2000/svg" xmlns:xlink="http://www.w3.org/1999/xlink" viewBox="0 0 620 620"><defs><style>.cls-1{fill:#312f30;}.cls-2,.cls-4{fill:none;}.cls-2{stroke-width:19.8px;stroke:url(#radial-gradient);}.cls-3{fill:#12b5ec;stroke-width:4px;}.cls-3,.cls-4{stroke:#fff;stroke-miterlimit:10;}.cls-4{stroke-width:7px;}</style><radialGradient id="radial-gradient" cx="-1412.068" cy="1242.3565" r="3.3" gradientTransform="matrix(123.1999, 134.4425, 134.4425, -123.1999, 7080.2106, 343030.3891)" gradientUnits="userSpaceOnUse"><stop offset="0.2729" stop-color="#66bcea"/><stop offset="0.5659" stop-color="#f3f7fc"/><stop offset="0.7448" stop-color="#d3e199"/><stop offset="1" stop-color="#5771b4"/></radialGradient></defs><g id="ALL_logo_s" data-name="ALL logo&apos;s"><circle class="cls-1" cx="310" cy="310" r="297"/><circle class="cls-1" cx="310" cy="310" r="297"/><circle class="cls-2" cx="310" cy="310" r="254.1"/><path id="Static_Icon" data-name="Static Icon" class="cls-3" d="M222.8029,294.5873,364.9794,173.3558a3.3,3.3,0,0,1,4.9665,4.2161l-54.0177,89.531a9.9,9.9,0,0,0,4.6566,14.2477l67.8873,28.3952a3.2988,3.2988,0,0,1,.858,5.5642L247.2473,435.4666a3.3008,3.3008,0,0,1-4.9757-4.1943l52.4465-89.2353a9.9,9.9,0,0,0-4.7147-14.15l-66.3326-27.7445A3.3,3.3,0,0,1,222.8029,294.5873Z"/></g><g id="WHITE_RING_FOR_BLACK_BG_copy" data-name="WHITE RING FOR BLACK BG copy"><circle class="cls-4" cx="310" cy="310" r="297"/></g></svg>