<svg xmlns="http://www.w3.org/2000/svg" xmlns:xlink="http://www.w3.org/1999/xlink" viewBox="0 0 620 620"><defs><style>.cls-1{fill:#312f30;}.cls-2,.cls-6{fill:#fff;}.cls-3,.cls-4{fill:none;}.cls-3{stroke-width:19.8px;stroke:url(#radial-gradient);}.cls-4,.cls-6{stroke:#fff;stroke-miterlimit:10;stroke-width:7px;}.cls-5{filter:url(#filter);}</style><radialGradient id="radial-gradient" cx="1520.4985" cy="378.7932" r="3.3" gradientTransform="matrix(123.1999, 134.4425, 134.4425, -123.1999, -238112.0086, -157621.9373)" gradientUnits="userSpaceOnUse"><stop offset="0.2729" stop-color="#66bcea"/><stop offset="0.5659" stop-color="#f3f7fc"/><stop offset="0.7448" stop-color="#d3e199"/><stop offset="1" stop-color="#5771b4"/></radialGradient><filter id="filter"><feOffset dx="7" dy="7" input="SourceAlpha"/><feGaussianBlur stdDeviation="5" result="blur"/><feFlood/><feComposite operator="in" in2="blur"/><feComposite in="SourceGraphic"/></filter></defs><g id="ALL_logo_s" data-name="ALL logo&apos;s"><circle class="cls-1" cx="310" cy="310" r="297"/><circle class="cls-1" cx="310" cy="310" r="297"/><path id="Static_Icon" data-name="Static Icon" class="cls-2" d="M226.7308,300.1814,368.9073,178.95a3.3,3.3,0,0,1,4.9665,4.2161L319.8561,272.697a9.9,9.9,0,0,0,4.6566,14.2478L392.4,315.34a3.2988,3.2988,0,0,1,.858,5.5641L251.1752,441.0607a3.3008,3.3008,0,0,1-4.9757-4.1943l52.4465-89.2353a9.9,9.9,0,0,0-4.7147-14.15L227.5987,305.737A3.3,3.3,0,0,1,226.7308,300.1814Z"/><circle class="cls-3" cx="310" cy="310" r="254.1"/></g><g id="WHITE_RING_FOR_BLACK_BG_copy" data-name="WHITE RING FOR BLACK BG copy"><circle class="cls-4" cx="310" cy="310" r="297"/><g class="cls-5"><path class="cls-6" d="M104.8776,592.2079V612.913H33.3351V505.8319H57.44v86.376Z"/><path class="cls-6" d="M108.74,556.3593h44.8106v20.86H108.74Z"/><path class="cls-6" d="M240.7,505.8319v20.5508H208.4055v86.53h-24.105v-86.53H152.006V505.8319Z"/><path class="cls-6" d="M332.1266,517.2665q1.8508,6.3369,4.0874,14.293,2.2383,7.96,4.7833,16.456,2.5422,8.499,5.1665,16.9971,2.622,8.499,5.0918,15.7607,2.017-7.8808,4.1142-17.1513,2.0933-9.271,3.957-19.16,1.862-9.8877,3.648-19.7012,1.7856-9.8115,3.3393-18.9287h25.0391q-5.44,26.8859-12.5137,54.5449-7.0722,27.6608-15.309,52.5362H341.4826q-5.4-14.833-10.4883-31.1358-5.0917-16.2993-10.0244-32.6806-4.95,16.3814-9.9014,32.6806-4.95,16.3053-10.3647,31.1358H278.673q-8.2279-24.876-15.2856-52.5362-7.062-27.6576-12.4917-54.5449H277.01q1.55,9.1187,3.4165,18.9287,1.8611,9.8145,3.8818,19.7012,2.0178,9.8892,4.1143,19.16t4.271,17.1513q2.7846-7.5688,5.4179-16.07,2.63-8.496,5.1089-16.9971,2.4771-8.496,4.5654-16.3789,2.09-7.8793,3.793-14.0605Z"/><path class="cls-6" d="M472.31,612.913Q470.52,607.332,468.466,601.45q-2.0566-5.8814-4.0972-11.7149H422.5475q-2.028,5.8595-4.0659,11.7461-2.039,5.8887-3.7954,11.4317H389.6545q6.044-17.3028,11.4678-31.9854,5.425-14.6776,10.6162-27.6582,5.1929-12.98,10.23-24.6465,5.0376-11.6644,10.4638-22.791h22.85q5.2764,11.1255,10.4009,22.791,5.1212,11.669,10.3237,24.6465,5.201,12.9786,10.6329,27.6582,5.4323,14.6821,11.4877,31.9854Zm-28.96-82.8223q-.8072,2.3336-2.3608,6.3477-1.5543,4.0165-3.5371,9.2783-1.9849,5.2617-4.4375,11.5889t-4.9834,13.2695h30.621q-2.4586-6.9639-4.7607-13.3106-2.3034-6.3443-4.3774-11.61-2.0749-5.2617-3.6382-9.2734Q444.31,532.3715,443.3493,530.0907Z"/><path class="cls-6" d="M544.0173,504.5956q23.9495,0,36.7754,8.4209,12.8239,8.4243,12.8252,27.582,0,19.317-12.9795,27.8907t-37.0845,8.5761h-7.5718V612.913h-24.105V507.3768a136.9286,136.9286,0,0,1,16.688-2.163Q537.3732,504.5985,544.0173,504.5956Zm1.5449,20.5508q-2.6286,0-5.1763.1543-2.55.1568-4.4038.3095v30.9034h7.5718q12.5155,0,18.8511-3.3994,6.3339-3.397,6.3354-12.67a15.207,15.207,0,0,0-1.6225-7.417,12.35,12.35,0,0,0-4.6358-4.7129,20.92,20.92,0,0,0-7.3393-2.4726A60.725,60.725,0,0,0,545.5622,525.1464Z"/></g></g></svg>