<svg xmlns="http://www.w3.org/2000/svg" xmlns:xlink="http://www.w3.org/1999/xlink" viewBox="0 0 1074.913 678.4622"><defs><style>.cls-1,.cls-6,.cls-7{fill:none;}.cls-2{clip-path:url(#clip-path);}.cls-3{fill:#f0b90b;}.cls-4{fill:#fff;}.cls-5{fill:#312f30;}.cls-6{stroke-width:19.7356px;stroke:url(#radial-gradient);}.cls-7{stroke:#fff;stroke-miterlimit:10;stroke-width:7px;}</style><clipPath id="clip-path"><rect class="cls-1" x="426.5803" y="5.0679" width="638.044" height="638.044"/></clipPath><radialGradient id="radial-gradient" cx="-486.4435" cy="-1981.3777" r="3.2893" gradientTransform="matrix(123.1999, 134.4425, 134.4425, -123.1999, 326459.551, -178561.5207)" gradientUnits="userSpaceOnUse"><stop offset="0.2729" stop-color="#66bcea"/><stop offset="0.5659" stop-color="#f3f7fc"/><stop offset="0.7448" stop-color="#d3e199"/><stop offset="1" stop-color="#5771b4"/></radialGradient></defs><g id="ALL_logo_s" data-name="ALL logo&apos;s"><g class="cls-2"><path class="cls-3" d="M745.6022,26.2031c164.5356,0,297.8868,133.3511,297.8868,297.8867S910.1378,621.9766,745.6022,621.9766,447.7155,488.6254,447.7155,324.09,581.0667,26.2031,745.6022,26.2031"/></g><g class="cls-2"><path class="cls-4" d="M618.791,248.4019l126.9708-126.891,50.5649,50.565L669.4357,299.0466Zm.1595,151.6949L821.689,197.2786l50.565,50.565L669.5155,450.6618Zm278.586-126.8112L694.798,476.0241l50.565,50.565L948.1812,323.8506ZM543.0233,324.17l50.565-50.565,50.5649,50.565-50.5649,50.565Z"/></g><circle class="cls-5" cx="318.8464" cy="324.361" r="296.0334"/><circle class="cls-5" cx="318.8464" cy="324.361" r="296.0334"/><path id="Static_Icon" data-name="Static Icon" class="cls-4" d="M235.8482,314.5743,377.5621,193.7374a3.2893,3.2893,0,0,1,4.95,4.2024l-53.8419,89.24a9.8678,9.8678,0,0,0,4.6415,14.2014l67.6663,28.3028a3.288,3.288,0,0,1,.8552,5.546l-141.62,119.7656a3.29,3.29,0,0,1-4.9595-4.1807L307.5294,361.87A9.8678,9.8678,0,0,0,302.83,347.766l-66.1168-27.6542A3.2894,3.2894,0,0,1,235.8482,314.5743Z"/><circle class="cls-6" cx="318.8464" cy="324.361" r="253.2731"/></g><g id="WHITE_RING_FOR_BLACK_BG_copy" data-name="WHITE RING FOR BLACK BG copy"><path class="cls-7" d="M746.6671,27.1142A296.37,296.37,0,0,0,531.94,118.833,294.9093,294.9093,0,0,0,319.2238,28.5536c-163.3628,0-295.7949,132.432-295.7949,295.795S155.861,620.1435,319.2238,620.1435A294.9092,294.9092,0,0,0,531.94,529.8642,296.37,296.37,0,0,0,746.6671,621.583c164.1582,0,297.2344-133.0764,297.2344-297.2344S910.8253,27.1142,746.6671,27.1142Z"/></g></svg>