<svg xmlns="http://www.w3.org/2000/svg" viewBox="0 0 620 620"><defs><style>.cls-1{fill:#2775ca;}.cls-2{fill:#fff;}.cls-3{fill:none;stroke:#fff;stroke-miterlimit:10;stroke-width:7px;}</style></defs><g id="ALL_logo_s" data-name="ALL logo&apos;s"><path class="cls-1" d="M310.8042,605.6039A296.4081,296.4081,0,1,0,14.3961,309.1958,295.6956,295.6956,0,0,0,310.8042,605.6039Z"/><path class="cls-2" d="M392.3164,356.1261c0-43.2252-25.9357-58.0456-77.8071-64.22-37.051-4.9411-44.4612-14.82-44.4612-32.1129s12.3513-28.4048,37.051-28.4048c22.2306,0,34.582,7.41,40.7561,25.9358a9.2888,9.2888,0,0,0,8.6463,6.1741H376.26a8.4417,8.4417,0,0,0,8.6463-8.6432v-1.236A61.7012,61.7012,0,0,0,329.33,202.9839V173.343c0-4.9411-3.7052-8.6462-9.8793-9.8822H300.925c-4.9411,0-8.6462,3.7051-9.8823,9.8822v28.4048c-37.051,4.9412-60.5147,29.6409-60.5147,60.5177,0,40.7561,24.7,56.81,76.5711,62.9867,34.582,6.1742,45.6973,13.5844,45.6973,33.3459S335.504,391.944,312.04,391.944c-32.1129,0-43.2282-13.5873-46.9333-32.1128-1.233-4.9382-4.9381-7.41-8.6432-7.41H235.4662a8.4417,8.4417,0,0,0-8.6432,8.6462v1.2361c4.9381,30.8738,24.7,53.1044,65.4558,59.2816v29.6408c0,4.9382,3.7051,8.6433,9.8793,9.8793h18.5255c4.9411,0,8.6462-3.7051,9.8822-9.8793V421.5849c37.051-6.1772,61.7507-32.1129,61.7507-65.4588Z"/><path class="cls-2" d="M247.8175,485.8046c-96.3327-34.5789-145.735-142.0269-109.917-237.1265,18.5255-51.8714,59.2816-91.3915,109.917-109.917,4.9411-2.4691,7.41-6.1742,7.41-12.3513V109.12c0-4.9411-2.4691-8.6462-7.41-9.8793-1.236,0-3.7051,0-4.9411,1.2331-117.3273,37.051-181.55,161.7914-144.499,279.1186a222.1787,222.1787,0,0,0,144.499,144.499c4.9411,2.4691,9.8822,0,11.1153-4.9411,1.236-1.2331,1.236-2.4691,1.236-4.9382V496.92C255.2277,493.2148,251.5226,488.2767,247.8175,485.8046Zm130.9146-385.33c-4.9412-2.4691-9.8823,0-11.1153,4.9411-1.2361,1.236-1.2361,2.4691-1.2361,4.9411v17.2895c0,4.9411,3.7051,9.8793,7.41,12.3513,96.3327,34.579,145.735,142.0269,109.917,237.1265-18.5255,51.8714-59.2816,91.3915-109.917,109.917-4.9411,2.4691-7.41,6.1742-7.41,12.3514v17.29c0,4.9411,2.4691,8.6462,7.41,9.8793,1.2361,0,3.7051,0,4.9412-1.2331,117.3272-37.051,181.55-161.7915,144.4989-279.1187A223.9941,223.9941,0,0,0,378.7321,100.4741Z"/></g><g id="WHITE_RING_FOR_BLACK_BG_copy" data-name="WHITE RING FOR BLACK BG copy"><circle class="cls-3" cx="310" cy="310" r="297"/></g></svg>