<svg xmlns="http://www.w3.org/2000/svg" xmlns:xlink="http://www.w3.org/1999/xlink" viewBox="0 0 620 620"><defs><style>.cls-1{fill:#312f30;}.cls-2,.cls-5{fill:none;}.cls-2{stroke-width:19.8px;stroke:url(#radial-gradient);}.cls-3{opacity:0.89;}.cls-4{fill:#fff;}.cls-5{stroke:#fff;stroke-miterlimit:10;stroke-width:7px;}</style><radialGradient id="radial-gradient" cx="-619.3281" cy="1239.1395" r="3.3" gradientTransform="matrix(123.1999, 134.4425, 134.4425, -123.1999, -90152.7392, 236056.1578)" gradientUnits="userSpaceOnUse"><stop offset="0.2729" stop-color="#66bcea"/><stop offset="0.5659" stop-color="#f3f7fc"/><stop offset="0.7448" stop-color="#d3e199"/><stop offset="1" stop-color="#5771b4"/></radialGradient></defs><g id="ALL_logo_s" data-name="ALL logo&apos;s"><circle class="cls-1" cx="310" cy="310" r="297"/><circle class="cls-1" cx="310" cy="310" r="297"/><circle class="cls-2" cx="310" cy="310" r="254.1"/><g class="cls-3"><path class="cls-4" d="M351.6111,413.4361q-8.6454-17.0973-18.925-34.6386a125.2763,125.2763,0,0,0-23.604-29.6585q-4.133,4.5683-10.4711,12.6953-6.34,8.1276-12.677,17.268-6.34,9.1368-11.8687,18.9433-5.5236,9.8094-8.2185,15.3905H213.2754a534.6839,534.6839,0,0,1,30.5034-49.5016q16.3557-23.7475,36.2333-50.2227a7.07,7.07,0,0,0,.2538-8.1394l-64.0372-96.8085h55.82l38.999,59.2671L350.9,208.7639H403.476l-66.4245,98.7834Q363.1757,340.28,380.07,367.5619q16.89,27.2784,26.6547,45.8742Z"/></g><g id="Static_Icon" data-name="Static Icon"><path class="cls-4" d="M259.9772,424.0682a9.4434,9.4434,0,0,1-8.1631-4.7662,9.211,9.211,0,0,1,.0869-9.3437l42.7178-72.6836a1.403,1.403,0,0,0-.668-2.0039l-54.0273-22.5977a9.3493,9.3493,0,0,1-2.46-15.7387l115.8037-98.7427a9.3177,9.3177,0,0,1,14.2413,2.5561,9.204,9.204,0,0,1-.1709,9.3882l-43.9961,72.9224a1.4009,1.4009,0,0,0,.6591,2.0176l55.294,23.1279a9.3478,9.3478,0,0,1,2.4267,15.7661L265.9987,421.8348A9.359,9.359,0,0,1,259.9772,424.0682Z"/><path class="cls-1" d="M359.3174,202.5931a2.7045,2.7045,0,0,1,2.317,4.1013l-43.9972,72.9225a8.0635,8.0635,0,0,0,3.7928,11.6047l55.2939,23.1278a2.6868,2.6868,0,0,1,.6989,4.5319l-115.7259,97.867a2.6384,2.6384,0,0,1-1.72.6586,2.7043,2.7043,0,0,1-2.3327-4.0748L300.3617,340.65a8.0636,8.0636,0,0,0-3.84-11.5249L242.494,306.5278a2.6879,2.6879,0,0,1-.7069-4.525L357.5892,203.26a2.6363,2.6363,0,0,1,1.7282-.6673m0-13.3229h-.001a16.0167,16.0167,0,0,0-10.3727,3.8532L233.1428,291.8651a16.0107,16.0107,0,0,0,4.21,26.9536l48.4711,20.2736-39.6656,67.4892a15.8071,15.8071,0,0,0-.1255,16.03,15.98,15.98,0,0,0,24.2623,4.3135l115.7307-97.871a16.01,16.01,0,0,0-4.1641-26.9972l-49.6692-20.775,40.8493-67.7051A16.0247,16.0247,0,0,0,359.3176,189.27Z"/></g></g><g id="WHITE_RING_FOR_BLACK_BG_copy" data-name="WHITE RING FOR BLACK BG copy"><circle class="cls-5" cx="310" cy="310" r="297"/></g></svg>